<!DOCTYPE svg PUBLIC "-//W3C//DTD SVG 1.1//EN" "http://www.w3.org/Graphics/SVG/1.1/DTD/svg11.dtd">
<!-- Uploaded to: SVG Repo, www.svgrepo.com, Transformed by: SVG Repo Mixer Tools -->
<svg fill="#0e8906" width="800px" height="800px" viewBox="0 0 56 56" id="Layer_1" version="1.1" xml:space="preserve" xmlns="http://www.w3.org/2000/svg" xmlns:xlink="http://www.w3.org/1999/xlink" stroke="#0e8906">
<g id="SVGRepo_bgCarrier" stroke-width="0"/>
<g id="SVGRepo_tracerCarrier" stroke-linecap="round" stroke-linejoin="round"/>
<g id="SVGRepo_iconCarrier"> <g> <path d="M52,50.4h-5.3V23.7l4.3,3c0.3,0.2,0.7,0.2,1,0.1c0.3-0.2,0.5-0.5,0.5-0.9V21c0-0.3-0.2-0.6-0.4-0.8L28.3,3.8 c-0.3-0.2-0.8-0.2-1.1,0L3.4,20.4C3.2,20.6,3,20.9,3,21.2v5.4c0,0.4,0.2,0.7,0.5,0.9c0.1,0.1,0.3,0.1,0.5,0.1 c0.2,0,0.4-0.1,0.6-0.2L9.3,24v26.4H4c-0.6,0-1,0.4-1,1s0.4,1,1,1h6.3h35.4H52c0.6,0,1-0.4,1-1S52.6,50.4,52,50.4z M5,21.7 L27.8,5.8l22.8,15.7V24l-22-15.3c-0.3-0.2-0.8-0.2-1.1,0L5,24.6V21.7z M11.3,50.4V22.6L28,10.8l16.7,11.6v28H11.3z"/> <path d="M39.8,29.4c-2.8-0.6-8.2-0.4-10.7,4.3c-4-6.8-13-4.9-13.1-4.8c-0.4,0.1-0.8,0.5-0.8,0.9c-0.2,5.7,1.3,9.8,4.3,12.3 c2.4,1.9,5.3,2.4,7.5,2.4c1.8,0,3.1-0.3,3.2-0.3c0,0,0.1,0,0.1,0c0,0,0.1,0,0.1,0c0.1,0,0.2-0.1,0.3-0.2c0,0,0,0,0,0c0,0,0,0,0,0 c0.2-0.2,0.3-0.4,0.3-0.6c0-0.4,0-0.8,0-1.1c0,0,0,0,0.1,0c1.9,0,4.5-0.4,6.5-2.3c2.1-2,3.1-5.2,3-9.4 C40.6,29.9,40.3,29.5,39.8,29.4z M20.8,40.5c-2.4-1.9-3.6-5.2-3.6-9.8c2.3-0.3,8.8-0.6,11,5.9c0,0,0,0,0,0c0,0,0,0,0,0 c0.3,0.9,0.6,2,0.7,3.2c0,0,0,0,0,0c0,0,0,0,0,0c0,0.3,0.1,0.6,0.1,0.9l-7.8-7.5c-0.4-0.4-1-0.4-1.4,0c-0.4,0.4-0.4,1,0,1.4l8,7.7 C26,42.5,23.1,42.3,20.8,40.5z M36.2,38.3c-1.6,1.5-3.7,1.8-5.2,1.8l5.9-5.7c0.4-0.4,0.4-1,0-1.4c-0.4-0.4-1-0.4-1.4,0l-4.9,4.7 c-0.1-0.5-0.2-1-0.4-1.5c1.5-5.2,6.4-5.2,8.4-5C38.6,34.5,37.8,36.8,36.2,38.3z"/> </g> </g>
</svg>